<svg xmlns="http://www.w3.org/2000/svg" preserveAspectRatio="xMinYMin" viewBox="0 0 261 234"><ellipse cx="89.581" cy="48.163" rx="35.351" ry="46.946"/><ellipse cx="169.615" cy="48.163" rx="35.351" ry="46.946"/><path d="M63.267 100.9266c4.8953 22.0962-4.872 43.053-21.8181 46.8072-16.9452 3.7541-34.6507-11.1162-39.546-33.2125-4.8954-22.0972 4.873-43.0531 21.8182-46.8072 16.946-3.7543 34.6505 11.1153 39.546 33.2125Z"/><ellipse cx="98.982" cy="176.753" rx="31.426" ry="40.98" transform="scale(-1 1) rotate(-12.4917 -379.8085 1635.4875)"/><path d="M131.154 91.149c29.902.404 34.245 37.502 50.339 57.127 18.142 22.122 61.005 37.743 37.896 71.267-21.639 31.392-62.539-3.888-87.67-3.394-27.273.536-63.768 31.071-82.579 5.656-23.085-31.189 13.764-50.137 31.675-74.66 14.471-19.814 18.454-56.427 50.339-55.996Z"/></svg>