<svg xmlns="http://www.w3.org/2000/svg" viewBox="54.864 98.416 189.48 299.774"><path d="M148.913 360.307c-18.246 1.042-38.183-13.206-38.67-13.73-.147-.157-3.458 13.587-2.224 16.937 1.29 3.503-33.445-14.138-33.383-14.632 2.082-65.988 32.85-103.174 32.352-103.992 31.328-7.955 52.781-4.561 82.978 0-.499.818 25.864 25.764 32.353 103.992.061.494-36.371 19.831-35.081 16.328 1.234-3.35 1.521-16.059-.155-19.019-.101.1-19.829 13.068-38.17 14.116Z" style="fill:#c00000"/><path d="M149.824 333.927c-21.078 1.204-33.362-14.124-33.925-14.729-.17-.183-12.781 25.779-11.355 29.649 1.49 4.046 13.305 18.496 13.76 26.089.78 13.032-12.49 22.487-20.317 22.228-20.659-.683-33.757-7.173-37.23-27.222-2.096-12.098 3.191-28.28 3.262-28.85 2.406-76.229 37.949-119.187 37.373-120.132-22.615-44.473-2.777-82.279-2.883-89.589.068-3.512-10.851-5.311-12.019-1.603-1.703 8.434-7.735 56.625-18.38 59.744-8.891 2.606-12.883-18.886-12.271-27.847 1.224-17.899 7.17-40.079 17.333-52.112 9.285-10.993 32.862 7.842 32.873 7.846 13.924-14.529 27.657-18.237 43.276-17.959 14.505.259 29.352 3.43 43.276 17.96.011-.005 22.456-21.668 32.872-7.847 9.479 12.578 16.109 34.213 17.333 52.112.612 8.961-.82 29.066-12.271 27.847-11.794-1.256-16.677-51.31-18.38-59.744-1.734-3.708-12.087.919-12.019 1.603-.106 7.31 19.732 45.116-2.883 89.589-.576.945 29.877 29.763 37.373 120.132.071.57 4.163 14.536 2.131 27.153-3.234 20.075-10.93 29.114-37.23 28.354-9.572-.277-18.801-11.247-19.186-21.663-.4-10.809 12.27-22.043 13.76-26.089 1.426-3.87-6.727-26.109-8.663-29.528-.117.115-14.423 13.398-35.61 14.608Z" style="fill:#fe0000"/><path d="M65.588 147.76c2.311-18.428 15.865-23.703 16.403-18.1.501 5.22-6.143 49.545-11.595 51.753-3.317 1.343-6.208-22.486-4.808-33.653Z" style="fill:#c00000"/><path d="M217.077 161.027c2.311 18.428 15.865 23.703 16.403 18.1.501-5.22-6.143-49.545-11.595-51.753-3.317-1.343-6.208 22.486-4.808 33.653Z" style="fill:#c00000" transform="rotate(180 225.111 154.287)"/><g transform="translate(0 5)"><ellipse cx="125" cy="157.805" rx="10.747" ry="16.968" style="stroke:#000;fill:#fff;stroke-width:2px"/><ellipse cx="124.717" cy="162.592" rx="5.939" ry="10.181" style="stroke:#000"/><ellipse cx="175.905" cy="156.674" rx="10.747" ry="16.968" style="stroke:#000;fill:#fff;stroke-width:2px"/><ellipse cx="175.622" cy="161.764" rx="5.939" ry="10.181" style="stroke:#000"/></g><g><path d="M101.5 211.472c.963-29.02 18.047-38.718 46.38-38.969 32.245-.285 46.992 8.956 48.077 40.022 1.12 32.067-1.191 41.634-48.077 42.128-43.199.456-47.452-10.895-46.38-43.181Z" style="paint-order:stroke;stroke:#c00000;stroke-width:0;fill:#c00000"/><path d="M100.803 209.648c.963-29.02 18.047-38.718 46.38-38.969 32.245-.285 46.992 8.956 48.077 40.022 1.12 32.067-1.191 41.634-48.077 42.128-43.199.456-47.452-10.895-46.38-43.181Z" style="paint-order:stroke;stroke:#c00000;stroke-width:0;fill:#fe7548"/><path d="M101.5 208.77c.963-29.02 18.047-38.718 46.38-38.969 32.245-.285 46.992 8.956 48.077 40.022 1.12 32.067-1.191 41.634-48.077 42.128-43.199.456-47.452-10.895-46.38-43.181Z" style="paint-order:stroke;stroke:#c00000;stroke-width:0;fill:#fe7548"/><path d="M101.244 209.896c.963-29.019 18.047-38.718 46.38-38.968 32.245-.285 46.992 8.955 48.077 40.021 1.12 32.068-1.191 41.634-48.077 42.129-43.199.456-47.452-10.895-46.38-43.182Z" style="paint-order:stroke;fill:#fe0000;stroke:#c00000;stroke-width:0"/><path d="M148.756 169.946c14.404-.085 21.81 9.919 22.059 19.796.159 6.288-16.328 17.409-23.19 17.534-7.092.129-20.918-12.124-20.927-18.099-.012-7.639 8.198-19.149 22.058-19.231Z" style="stroke:#000;paint-order:fill"/><path d="M148.756 203.883c0-2.335-.292 16.159 5.967 23.82 7.651 9.365 27.863 14.043 27.404 14.076-17.409 1.232-33.937-15.837-33.937-15.837s-19.238 18.354-34.502 15.837c-.643-.106 18.98-2.898 27.627-13.426 6.61-8.048 7.441-24.47 7.441-24.47Z" style="stroke:#000"/></g><path d="M169.104 127.646s7.603-.654 13.904 3.222c7.234 4.45 3.784 1.588 8.806 9.268 1.053 1.61-3.699-2.54-11.658-5.49-5.449-2.02-10.653-1.941-10.653-1.941l-.399-5.059Z" style="stroke:#000;fill:#c00000;stroke-width:0"/><path d="M110.875 140.454s7.603.654 13.904-3.222c7.234-4.45 3.784-1.588 8.806-9.268 1.053-1.61-3.699 2.54-11.658 5.49-5.449 2.02-10.653 1.941-10.653 1.941l-.399 5.059Z" style="stroke:#000;fill:#c00000;stroke-width:0" transform="rotate(180 122.303 134.05)"/></svg>